<svg xmlns="http://www.w3.org/2000/svg" viewBox="0 0 1600 900">
<defs>
  <linearGradient id="g" x1="0" x2="1"><stop stop-color="#171717"/><stop offset="1" stop-color="#4b4031"/></linearGradient>
  <radialGradient id="r"><stop stop-color="#c9a96e" stop-opacity=".35"/><stop offset="1" stop-color="#c9a96e" stop-opacity="0"/></radialGradient>
</defs>
<rect width="1600" height="900" fill="url(#g)"/>
<ellipse cx="1050" cy="520" rx="620" ry="340" fill="url(#r)"/>
<path d="M290 610 C410 570 520 485 660 430 C790 380 980 372 1105 425 L1300 525 C1370 560 1410 615 1388 658 L1338 685 H315 C260 680 240 640 290 610Z" fill="#111" stroke="#c9a96e" stroke-opacity=".5" stroke-width="3"/>
<path d="M570 485 C680 400 815 390 980 415 L1095 477 Z" fill="#262626" stroke="#c9a96e" stroke-opacity=".3"/>
<circle cx="525" cy="670" r="92" fill="#080808" stroke="#666" stroke-width="18"/>
<circle cx="525" cy="670" r="38" fill="#c9a96e" fill-opacity=".55"/>
<circle cx="1180" cy="670" r="92" fill="#080808" stroke="#666" stroke-width="18"/>
<circle cx="1180" cy="670" r="38" fill="#c9a96e" fill-opacity=".55"/>
<text x="80" y="120" fill="white" fill-opacity=".12" font-family="Arial" font-size="78" letter-spacing="14">SUV PREMIUM</text>
</svg>